<svg xmlns="http://www.w3.org/2000/svg" xmlns:xlink="http://www.w3.org/1999/xlink" width="500" zoomAndPan="magnify" viewBox="0 0 375 374.999991" height="500" preserveAspectRatio="xMidYMid meet" version="1.0"><defs><g/></defs><g fill="#000000" fill-opacity="1"><g transform="translate(55.646485, 198.374987)"><g><path d="M 14.039062 0 L 19.726562 0 L 19.726562 -20.410156 L 32.363281 -20.410156 L 32.363281 -25.199219 L 1.402344 -25.199219 L 1.402344 -20.410156 L 14.039062 -20.410156 Z M 14.039062 0 "/></g></g></g><g fill="#000000" fill-opacity="1"><g transform="translate(89.414553, 198.374987)"><g/></g></g><g fill="#000000" fill-opacity="1"><g transform="translate(106.442583, 198.374987)"><g><path d="M 1.402344 0 L 7.703125 0 L 10.765625 -5.578125 L 26.820312 -5.578125 L 29.878906 0 L 36.179688 0 L 22.464844 -25.199219 L 15.121094 -25.199219 Z M 12.960938 -9.972656 L 18.792969 -20.554688 L 24.625 -9.972656 Z M 12.960938 -9.972656 "/></g></g></g><g fill="#000000" fill-opacity="1"><g transform="translate(144.02666, 198.374987)"><g/></g></g><g fill="#000000" fill-opacity="1"><g transform="translate(161.054689, 198.374987)"><g><path d="M 1.402344 0 L 7.703125 0 L 10.765625 -5.578125 L 26.820312 -5.578125 L 29.878906 0 L 36.179688 0 L 22.464844 -25.199219 L 15.121094 -25.199219 Z M 12.960938 -9.972656 L 18.792969 -20.554688 L 24.625 -9.972656 Z M 12.960938 -9.972656 "/></g></g></g><g fill="#000000" fill-opacity="1"><g transform="translate(198.638766, 198.374987)"><g/></g></g><g fill="#000000" fill-opacity="1"><g transform="translate(215.666796, 198.374987)"><g><path d="M 1.765625 0 L 24.804688 0 C 30.527344 0 33.011719 -3.058594 33.011719 -7.308594 C 33.011719 -10.332031 31.679688 -12.347656 29.484375 -13.570312 C 30.816406 -14.941406 31.464844 -16.703125 31.464844 -18.539062 C 31.464844 -22.210938 29.699219 -25.199219 23.976562 -25.199219 L 1.765625 -25.199219 Z M 7.453125 -15.046875 L 7.453125 -20.914062 L 22.140625 -20.914062 C 24.121094 -20.914062 25.777344 -20.914062 25.777344 -17.964844 C 25.777344 -15.046875 24.121094 -15.046875 22.140625 -15.046875 Z M 7.453125 -4.5 L 7.453125 -10.546875 L 23.652344 -10.546875 C 25.632812 -10.546875 27.324219 -10.546875 27.324219 -7.523438 C 27.324219 -4.5 25.632812 -4.5 23.652344 -4.5 Z M 7.453125 -4.5 "/></g></g></g><g fill="#000000" fill-opacity="1"><g transform="translate(250.082874, 198.374987)"><g/></g></g><g fill="#000000" fill-opacity="1"><g transform="translate(267.110904, 198.374987)"><g><path d="M 17.605469 0.359375 C 28.65625 0.359375 33.445312 -3.886719 33.445312 -12.636719 L 33.445312 -25.199219 L 27.757812 -25.199219 L 27.757812 -12.636719 C 27.757812 -8.929688 26.785156 -4.429688 17.605469 -4.429688 C 8.425781 -4.429688 7.453125 -8.890625 7.453125 -12.636719 L 7.453125 -25.199219 L 1.765625 -25.199219 L 1.765625 -12.636719 C 1.765625 -3.851562 6.515625 0.359375 17.605469 0.359375 Z M 17.605469 0.359375 "/></g></g></g><g fill="#000000" fill-opacity="1"><g transform="translate(302.314441, 198.374987)"><g/></g></g></svg>