<svg width="17" height="14" viewBox="0 0 17 14" fill="none" xmlns="http://www.w3.org/2000/svg">
<path fill-rule="evenodd" clip-rule="evenodd" d="M15.7803 12.0347C15.7803 12.7924 15.166 13.4067 14.4082 13.4067H2.05957C1.3018 13.4067 0.6875 12.7924 0.6875 12.0347V4.48828C0.6875 3.73051 1.3018 3.11621 2.05957 3.11621H4.80371L6.17578 1.05811H10.292L11.6641 3.11621H14.4082C15.166 3.11621 15.7803 3.73051 15.7803 4.48828V12.0347Z" stroke="white" stroke-linecap="round" stroke-linejoin="round"/>
<path fill-rule="evenodd" clip-rule="evenodd" d="M8.23242 10.6626C9.74797 10.6626 10.9766 9.434 10.9766 7.91846C10.9766 6.40291 9.74797 5.17432 8.23242 5.17432C6.71687 5.17432 5.48828 6.40291 5.48828 7.91846C5.48828 9.434 6.71687 10.6626 8.23242 10.6626Z" stroke="white" stroke-linecap="round" stroke-linejoin="round"/>
</svg>
