<svg width="18" height="18" viewBox="0 0 18 18" fill="none" xmlns="http://www.w3.org/2000/svg">
<path d="M9.0013 2.33341C5.3194 2.33341 2.33464 5.31818 2.33464 9.00008C2.33464 12.682 5.3194 15.6667 9.0013 15.6667C12.6832 15.6667 15.668 12.682 15.668 9.00008C15.668 5.31818 12.6832 2.33341 9.0013 2.33341ZM0.667969 9.00008C0.667969 4.39771 4.39893 0.666748 9.0013 0.666748C13.6037 0.666748 17.3346 4.39771 17.3346 9.00008C17.3346 13.6025 13.6037 17.3334 9.0013 17.3334C4.39893 17.3334 0.667969 13.6025 0.667969 9.00008Z" fill="#191919"/>
<path d="M9.0013 7.33341C9.46154 7.33341 9.83463 7.70651 9.83463 8.16675V13.1667C9.83463 13.627 9.46154 14.0001 9.0013 14.0001C8.54106 14.0001 8.16797 13.627 8.16797 13.1667V8.16675C8.16797 7.70651 8.54106 7.33341 9.0013 7.33341Z" fill="#191919"/>
<path d="M10.2513 5.25008C10.2513 5.94044 9.69166 6.50008 9.0013 6.50008C8.31095 6.50008 7.7513 5.94044 7.7513 5.25008C7.7513 4.55973 8.31095 4.00008 9.0013 4.00008C9.69166 4.00008 10.2513 4.55973 10.2513 5.25008Z" fill="#191919"/>
</svg>
