<svg width="54" height="36" viewBox="0 0 54 36" fill="none" xmlns="http://www.w3.org/2000/svg">
<path d="M53.2407 2.26518C48.5843 0.778821 43.6702 0.276391 38.8099 0.789929C33.4738 1.36243 29.3509 3.27003 26.8858 6.30683C24.0579 9.88835 23.5175 14.7678 25.4934 18.8817C25.7023 19.3008 25.9395 19.7058 26.2022 20.0937C25.2973 22.1035 24.577 24.1914 24.0502 26.3318C23.6986 25.9029 23.3158 25.4615 22.9018 25.0134C22.9573 24.889 23.0112 24.7634 23.0607 24.6357C24.3301 21.3682 23.5388 17.4859 21.092 14.9759C18.9772 12.8055 15.676 11.6234 11.5446 11.5563C7.81055 11.5024 4.10598 12.2249 0.666307 13.6784C0.283931 13.8407 0.0263076 14.2056 0.00195512 14.62C-0.0228245 15.0344 0.189512 15.4275 0.549672 15.6338C2.63629 16.8459 4.24868 18.7313 5.12281 20.9807C5.35095 21.5784 5.52825 22.2039 5.71624 22.8656C5.8568 23.3604 6.00206 23.8722 6.17167 24.3764C6.431 25.1979 6.79843 25.9819 7.26369 26.7074C8.82182 29.0606 11.3981 30.3944 14.2913 30.3944C17.1486 30.3927 19.8595 29.1311 21.7008 26.9462C22.3122 27.6383 22.8407 28.3052 23.2923 28.9268C25.8574 32.458 26.6111 35.3491 26.6183 35.3781L28.7404 34.8466C28.7105 34.7266 28.0359 32.0939 25.7852 28.6863C26.2146 26.3775 26.8841 24.1204 27.7821 21.9509C29.932 23.9816 32.8991 25.2154 36.0509 25.2676C36.1209 25.2688 36.1901 25.2693 36.2598 25.2693C40.4317 25.2693 44.0299 23.2006 45.9123 19.7062C46.3827 18.8347 46.7399 17.8448 47.0385 16.5917C47.1992 15.9158 47.3286 15.2288 47.4538 14.5644C47.6234 13.6626 47.7836 12.8111 48.0165 11.9822C48.9201 8.8382 50.8653 6.09492 53.5338 4.20226C53.8739 3.96429 54.0499 3.55372 53.9875 3.14272C53.9251 2.73214 53.6359 2.39206 53.2403 2.26518H53.2407ZM21.201 23.3104C18.4645 20.7756 14.6878 18.181 9.56393 16.2619L8.79618 18.3109C13.9187 20.2292 17.5934 22.8537 20.176 25.3526C19.0165 26.8876 17.1627 27.9412 15.0907 28.1642C12.5764 28.4351 10.3876 27.4644 9.08756 25.5C8.72825 24.9326 8.44542 24.3204 8.24548 23.6791C8.09252 23.2245 7.96094 22.7605 7.82123 22.2688C7.62855 21.5908 7.42945 20.8884 7.1667 20.2005C6.38828 18.1673 5.09974 16.3687 3.42497 14.9776C6.03282 14.1205 8.76542 13.704 11.51 13.7442C13.9794 13.7839 17.3742 14.2953 19.5262 16.5028C21.2253 18.2459 21.8764 20.973 21.201 23.3104ZM45.911 11.3901C45.6521 12.3116 45.4753 13.2516 45.3044 14.1603C45.1788 14.8285 45.06 15.4599 44.9104 16.085C44.6575 17.1479 44.3636 17.9687 43.9868 18.6685C42.4679 21.4874 39.5153 23.1331 36.0872 23.0801C33.2106 23.0327 30.5297 21.804 28.7549 19.8216C28.7601 19.8113 28.7648 19.8015 28.7699 19.7917C30.2114 16.9348 31.9964 14.5264 34.0745 12.6333C36.6229 10.3002 39.7516 8.69551 43.1331 7.98672L42.6747 5.84798C38.9142 6.63665 35.4352 8.42165 32.6013 11.0163C30.5895 12.8491 28.8361 15.1105 27.3771 17.7486C25.8673 14.5469 26.3526 10.4348 28.5845 7.68509C31.2286 4.42742 35.7313 3.32002 39.0432 2.96456C40.1925 2.84194 41.3477 2.78042 42.5034 2.78085C45.2266 2.78128 47.9396 3.11623 50.5807 3.77887C48.351 5.83601 46.7347 8.47035 45.911 11.3901Z" fill="#025B37"/>
</svg>
