<svg width="20" height="12" viewBox="0 0 20 12" fill="none" xmlns="http://www.w3.org/2000/svg">
<path d="M19.894 10.6007C19.8698 10.5485 19.8472 10.5052 19.8262 10.4705C19.4792 9.84558 18.8161 9.07849 17.8373 8.16905L17.8166 8.14822L17.8063 8.13801L17.7958 8.12754H17.7853C17.341 7.70406 17.0597 7.41932 16.9419 7.27354C16.7264 6.99584 16.6781 6.71474 16.7959 6.42993C16.8791 6.21474 17.1918 5.76029 17.7331 5.06597C18.0178 4.69799 18.2433 4.40308 18.4099 4.18089C19.611 2.58412 20.1317 1.56376 19.9719 1.11942L19.9099 1.01558C19.8682 0.953069 19.7606 0.89588 19.5872 0.843724C19.4135 0.791678 19.1914 0.783071 18.9206 0.817756L15.9217 0.838472C15.8731 0.821257 15.8037 0.822862 15.7134 0.843724C15.6231 0.864586 15.5779 0.875054 15.5779 0.875054L15.5257 0.901132L15.4843 0.932462C15.4496 0.953178 15.4114 0.989615 15.3697 1.0417C15.3282 1.0936 15.2936 1.15451 15.2658 1.22391C14.9393 2.06391 14.5681 2.8449 14.1515 3.56684C13.8946 3.99732 13.6587 4.3704 13.4433 4.68629C13.2281 5.00207 13.0476 5.23472 12.9019 5.38386C12.756 5.53314 12.6244 5.65274 12.5061 5.74308C12.3881 5.83346 12.298 5.87164 12.2355 5.85767C12.173 5.84371 12.1141 5.82985 12.0583 5.81599C11.9612 5.75347 11.8831 5.66846 11.8242 5.56086C11.765 5.45327 11.7252 5.31784 11.7044 5.1547C11.6836 4.99145 11.6714 4.85103 11.6679 4.73297C11.6646 4.61506 11.6661 4.44827 11.6732 4.23308C11.6804 4.01778 11.6836 3.87211 11.6836 3.79574C11.6836 3.5319 11.6888 3.24555 11.6991 2.93663C11.7096 2.6277 11.7181 2.38294 11.7252 2.20262C11.7323 2.02211 11.7356 1.83115 11.7356 1.62982C11.7356 1.42849 11.7233 1.2706 11.6991 1.156C11.6752 1.04155 11.6385 0.930456 11.5901 0.822753C11.5414 0.715159 11.4701 0.631928 11.3766 0.572843C11.2829 0.51383 11.1664 0.467 11.0278 0.432205C10.6598 0.348938 10.1912 0.303895 9.62185 0.296892C8.33069 0.283032 7.50105 0.366408 7.13311 0.546911C6.98733 0.623175 6.85541 0.727377 6.73746 0.859188C6.61247 1.01197 6.59504 1.09535 6.68527 1.10906C7.10186 1.17147 7.39677 1.32075 7.57035 1.55676L7.6329 1.68183C7.68155 1.77206 7.73013 1.93181 7.77875 2.16086C7.8273 2.3899 7.85863 2.64328 7.87241 2.92083C7.90706 3.42769 7.90706 3.86157 7.87241 4.2225C7.83765 4.58358 7.80483 4.86467 7.7735 5.066C7.74217 5.26733 7.69534 5.43047 7.6329 5.55539C7.57035 5.68035 7.52873 5.75672 7.50787 5.78444C7.48704 5.81216 7.46968 5.82963 7.4559 5.83648C7.36566 5.87106 7.27182 5.88868 7.17469 5.88868C7.07742 5.88868 6.95947 5.84002 6.82065 5.74279C6.68188 5.64555 6.53785 5.51199 6.38856 5.34188C6.23928 5.17174 6.07093 4.93397 5.88342 4.62855C5.69606 4.32313 5.50166 3.96216 5.30033 3.54565L5.13376 3.24358C5.02963 3.04925 4.88739 2.7663 4.70689 2.39497C4.52628 2.0235 4.36664 1.66417 4.22786 1.31706C4.17238 1.17128 4.08904 1.0603 3.97799 0.983925L3.92587 0.952595C3.89122 0.924876 3.8356 0.895442 3.7593 0.864076C3.68289 0.832746 3.60316 0.810279 3.51978 0.796456L0.666572 0.817172C0.375011 0.817172 0.177184 0.883224 0.073018 1.01514L0.0313299 1.07755C0.0105041 1.11231 0 1.16782 0 1.24423C0 1.3206 0.0208258 1.41434 0.0625139 1.52532C0.47903 2.50425 0.931983 3.44834 1.42137 4.35774C1.91076 5.26715 2.33603 5.9997 2.69692 6.55474C3.05789 7.11018 3.42583 7.6344 3.80073 8.12714C4.17563 8.62007 4.42379 8.93596 4.54521 9.07473C4.66677 9.21377 4.76225 9.31771 4.83166 9.38712L5.09204 9.63699C5.25865 9.80364 5.5033 10.0032 5.82612 10.2357C6.14901 10.4684 6.50648 10.6974 6.89871 10.9232C7.291 11.1487 7.74739 11.3326 8.2681 11.4749C8.78875 11.6173 9.2955 11.6745 9.78842 11.6469H10.986C11.2288 11.6259 11.4128 11.5496 11.5379 11.4178L11.5793 11.3656C11.6072 11.3241 11.6333 11.2598 11.6573 11.1731C11.6817 11.0864 11.6938 10.9908 11.6938 10.8868C11.6867 10.5883 11.7094 10.3194 11.7614 10.0799C11.8133 9.84047 11.8724 9.65997 11.9386 9.53841C12.0047 9.41695 12.0793 9.31447 12.1624 9.23138C12.2456 9.14812 12.3049 9.09767 12.3397 9.08031C12.3743 9.06284 12.4019 9.05099 12.4227 9.04388C12.5893 8.98837 12.7854 9.04213 13.0112 9.20541C13.2369 9.36856 13.4486 9.56999 13.6465 9.8094C13.8444 10.049 14.0821 10.3179 14.3597 10.6163C14.6376 10.9149 14.8805 11.1368 15.0886 11.2828L15.2968 11.4078C15.4359 11.4911 15.6164 11.5675 15.8386 11.6369C16.0604 11.7063 16.2547 11.7237 16.4215 11.689L19.0872 11.6474C19.3509 11.6474 19.556 11.6037 19.7015 11.5171C19.8474 11.4303 19.934 11.3348 19.9619 11.2308C19.9898 11.1267 19.9913 11.0086 19.9672 10.8765C19.9425 10.7448 19.9182 10.6528 19.894 10.6007Z" fill="#191919"/>
</svg>
